<?xml version="1.0" encoding="utf-8"?>
<!-- Generator: Adobe Illustrator 23.0.3, SVG Export Plug-In . SVG Version: 6.00 Build 0)  -->
<svg version="1.1" id="圖層_1" xmlns="http://www.w3.org/2000/svg" xmlns:xlink="http://www.w3.org/1999/xlink" x="0px" y="0px"
	 viewBox="0 0 635.7 105.2" style="enable-background:new 0 0 635.7 105.2;" xml:space="preserve">
<style type="text/css">
	.st0{fill:none;stroke:#000000;stroke-width:8;stroke-linecap:round;stroke-linejoin:round;stroke-miterlimit:10;}
</style>
<g>
	<polyline class="st0" points="493.9,29.8 411.6,29.8 411.6,77.3 493.9,77.3 	"/>
	<line class="st0" x1="277.4" y1="29.8" x2="359.6" y2="29.8"/>
	<line class="st0" x1="291.4" y1="53.9" x2="345.6" y2="53.9"/>
	<line class="st0" x1="277.4" y1="77.3" x2="359.6" y2="77.3"/>
	<line class="st0" x1="143.7" y1="29.8" x2="225.3" y2="29.8"/>
	<line class="st0" x1="184.8" y1="77.3" x2="184.8" y2="29.8"/>
	<polyline class="st0" points="9.4,29.8 79.6,29.8 79.6,52.6 9.4,52.6 	"/>
	<polyline class="st0" points="9.4,77.3 91.6,77.3 91.6,52.6 9.4,52.6 	"/>
	<polyline class="st0" points="9.4,77.3 9.4,52.6 9.4,29.8 	"/>
	<polyline class="st0" points="546,29.8 627.6,29.8 546,77.3 627.6,77.3 	"/>
	<polyline class="st0" points="476,61.5 433.5,61.5 433.5,45.6 476,45.6 	"/>
	<path class="st0" d="M471.8,61.5"/>
	<path class="st0" d="M471.8,45.6"/>
</g>
</svg>
